# xmcd CD database file
#
# Track frame offsets:
#	150
#	29075
#	56804
#	68673
#	80653
#	99735
#	109706
#	128638
#	154669
#	178577
#	200989
#	232594
#	243412
#	275853
#	296750
#
# Disc length: 4438 seconds
#
# Revision: 0
# Processed by: cddbd v1.5.1PL0 Copyright (c) Steve Scherf et al.
# Submitted via: CDex 1.51
#
DISCID=df11540f
DTITLE=UNIQUELY BLENDED BY DJ QUARTZ - WOW 6 - What A Rush!!
DYEAR=1900
DGENRE=Electronica and Dance
TTITLE0=Beefcakes - REZ
TTITLE1=Double Bluff - Stomping Ground
TTITLE2=Tunnel Vision - See k one
TTITLE3=Cheeky Chap - Threshold
TTITLE4=Hardass - Sccale
TTITLE5=Know You Want It - Tekno Dred
TTITLE6=Fying Eye  - Bumpa Ta Bumpa
TTITLE7=DJS Mixing - Billy Bunter v Mc Duke
TTITLE8=Trust This - Helix
TTITLE9=Coming UP For Air - DJ Fury
TTITLE10=Trance End - Beachbum
TTITLE11=Twister - Threshold
TTITLE12=Prayer For a Dream - Stomping Ground
TTITLE13=Swallow The Light - Billy Bunter v Mc Duke
TTITLE14=Spot The Difference - Helix
EXTD=
EXTT0=
EXTT1=
EXTT2=
EXTT3=
EXTT4=
EXTT5=
EXTT6=
EXTT7=
EXTT8=
EXTT9=
EXTT10=
EXTT11=
EXTT12=
EXTT13=
EXTT14=
PLAYORDER=
